<svg width="16" height="12" viewBox="0 0 16 12" fill="none" xmlns="http://www.w3.org/2000/svg">
<path d="M9.55775 6.54806H12.9614V5.42306H9.55775V6.54806ZM9.55775 4.38469H12.9614V3.25969H9.55775V4.38469ZM3.03856 8.74031H8.51919V8.47219C8.51919 7.97219 8.27181 7.57938 7.77706 7.29375C7.28244 7.00813 6.61638 6.86531 5.77888 6.86531C4.94138 6.86531 4.27525 7.00813 3.7805 7.29375C3.28588 7.57938 3.03856 7.97219 3.03856 8.47219V8.74031ZM5.77888 5.88469C6.14325 5.88469 6.45306 5.757 6.70831 5.50163C6.96369 5.24638 7.09138 4.93656 7.09138 4.57219C7.09138 4.20769 6.96369 3.89781 6.70831 3.64256C6.45306 3.38731 6.14325 3.25969 5.77888 3.25969C5.4145 3.25969 5.10463 3.38731 4.84925 3.64256C4.594 3.89781 4.46638 4.20769 4.46638 4.57219C4.46638 4.93656 4.594 5.24638 4.84925 5.50163C5.10463 5.757 5.4145 5.88469 5.77888 5.88469ZM2.23081 11.625C1.85194 11.625 1.53125 11.4938 1.26875 11.2313C1.00625 10.9688 0.875 10.6481 0.875 10.2692V1.73081C0.875 1.35194 1.00625 1.03125 1.26875 0.76875C1.53125 0.50625 1.85194 0.375 2.23081 0.375H13.7692C14.1481 0.375 14.4688 0.50625 14.7313 0.76875C14.9938 1.03125 15.125 1.35194 15.125 1.73081V10.2692C15.125 10.6481 14.9938 10.9688 14.7313 11.2313C14.4688 11.4938 14.1481 11.625 13.7692 11.625H2.23081ZM2.23081 10.5H13.7692C13.8269 10.5 13.8798 10.4759 13.9278 10.4278C13.9759 10.3798 14 10.3269 14 10.2692V1.73081C14 1.67306 13.9759 1.62019 13.9278 1.57219C13.8798 1.52406 13.8269 1.5 13.7692 1.5H2.23081C2.17306 1.5 2.12019 1.52406 2.07219 1.57219C2.02406 1.62019 2 1.67306 2 1.73081V10.2692C2 10.3269 2.02406 10.3798 2.07219 10.4278C2.12019 10.4759 2.17306 10.5 2.23081 10.5Z" fill="#441AB0"/>
</svg>
