<svg width="16" height="16" viewBox="0 0 16 16" fill="none" xmlns="http://www.w3.org/2000/svg">
<path d="M11.517 5.983C11.1772 5.983 10.9014 5.70722 10.9014 5.36744V3.96858C10.9014 2.76762 10.064 1.65807 8.91042 1.33059C7.66206 0.976955 6.28228 1.58451 5.70427 2.74761C5.55285 3.05232 5.18351 3.17573 4.87881 3.02462C4.57441 2.87319 4.45038 2.50385 4.60181 2.19915C5.43958 0.514362 7.43708 -0.368351 9.24682 0.145949C10.9461 0.628241 12.1326 2.20007 12.1326 3.96827V5.36713C12.1326 5.70753 11.8571 5.983 11.517 5.983Z" fill="#441AB0"/>
<path d="M8.15943 13.286C7.81965 13.286 7.54387 13.0102 7.54387 12.6704V10.544C7.54387 10.2042 7.81965 9.92842 8.15943 9.92842C8.49922 9.92842 8.77499 10.2042 8.77499 10.544V12.6704C8.77499 13.0102 8.49922 13.286 8.15943 13.286Z" fill="#441AB0"/>
<path d="M8.15943 11.1592C7.14099 11.1592 6.31275 10.331 6.31275 9.31256C6.31275 8.29412 7.14099 7.46588 8.15943 7.46588C9.17788 7.46588 10.0061 8.29412 10.0061 9.31256C10.0061 10.331 9.17788 11.1592 8.15943 11.1592ZM8.15943 8.697C7.8258 8.697 7.54387 8.97892 7.54387 9.31256C7.54387 9.64619 7.8258 9.92812 8.15943 9.92812C8.49307 9.92812 8.77499 9.64619 8.77499 9.31256C8.77499 8.97892 8.49307 8.697 8.15943 8.697Z" fill="#441AB0"/>
<path d="M2.11556 15.3844C1.77577 15.3844 1.5 15.1087 1.5 14.7689V5.983C1.5 5.64321 1.77577 5.36744 2.11556 5.36744C2.45535 5.36744 2.73112 5.64321 2.73112 5.983V14.7689C2.73112 15.1087 2.45566 15.3844 2.11556 15.3844Z" fill="#441AB0"/>
<path d="M14.203 15.3844C13.8632 15.3844 13.5874 15.1087 13.5874 14.7689V5.983C13.5874 5.64321 13.8632 5.36744 14.203 5.36744C14.5428 5.36744 14.8186 5.64321 14.8186 5.983V14.7689C14.8186 15.1087 14.5428 15.3844 14.203 15.3844Z" fill="#441AB0"/>
<path d="M2.11525 6.59856C1.77546 6.59856 1.5 6.32278 1.5 5.983C1.5 5.30403 2.05216 4.75188 2.73112 4.75188C3.07091 4.75188 3.34668 5.02765 3.34668 5.36744C3.34668 5.70722 3.07091 5.983 2.73112 5.983H2.7305C2.7305 6.32309 2.45535 6.59856 2.11525 6.59856Z" fill="#441AB0"/>
<path d="M13.5874 5.983H2.73112C2.39133 5.983 2.11556 5.70722 2.11556 5.36744C2.11556 5.02765 2.39133 4.75188 2.73112 4.75188H13.5871C13.9269 4.75188 14.2027 5.02765 14.2027 5.36744C14.2027 5.70722 13.9272 5.983 13.5874 5.983Z" fill="#441AB0"/>
<path d="M14.203 6.59856C13.8632 6.59856 13.5874 6.32278 13.5874 5.983V5.98207C13.2477 5.98207 12.9719 5.70692 12.9719 5.36713C12.9719 5.02734 13.2477 4.75188 13.5874 4.75188C14.2664 4.75188 14.8186 5.30403 14.8186 5.983C14.8186 6.32309 14.5428 6.59856 14.203 6.59856Z" fill="#441AB0"/>
<path d="M13.5874 16C13.2477 16 12.9719 15.7242 12.9719 15.3844C12.9719 15.0447 13.2477 14.7689 13.5874 14.7689H13.5881C13.5881 14.4291 13.8632 14.1533 14.2033 14.1533C14.5431 14.1533 14.8186 14.4291 14.8186 14.7689C14.8186 15.4478 14.2661 16 13.5874 16Z" fill="#441AB0"/>
<path d="M13.5874 16H2.73112C2.39133 16 2.11556 15.7242 2.11556 15.3844C2.11556 15.0447 2.39133 14.7689 2.73112 14.7689H13.5871C13.9269 14.7689 14.2027 15.0447 14.2027 15.3844C14.2027 15.7242 13.9272 16 13.5874 16Z" fill="#441AB0"/>
<path d="M2.73112 16C2.05216 16 1.5 15.4478 1.5 14.7689C1.5 14.4291 1.77577 14.1533 2.11556 14.1533C2.45535 14.1533 2.73112 14.4291 2.73112 14.7689V14.7698C3.07091 14.7698 3.34668 15.045 3.34668 15.3847C3.34668 15.7245 3.07122 16 2.73112 16Z" fill="#441AB0"/>
</svg>
